<svg xmlns="http://www.w3.org/2000/svg" width="30" height="30" viewBox="0 0 30 30">
  <g id="Group_2699" data-name="Group 2699" transform="translate(-340 -986)">
    <circle id="Ellipse_77" data-name="Ellipse 77" cx="15" cy="15" r="15" transform="translate(340 986)" fill="#4b5d7a"/>
    <g id="Layer_x0020_1" transform="translate(347.946 989.511)">
      <g id="_1421394342400">
        <g id="Group_520" data-name="Group 520">
          <path id="Path_9192" data-name="Path 9192" d="M383.654,0,383.5.524V15.717l.154.154,7.053-4.169Z" transform="translate(-376.601)" fill="#242d3b"/>
          <path id="Path_9193" data-name="Path 9193" d="M7.053,0,0,11.7l7.053,4.169V0Z" fill="#728dba"/>
          <path id="Path_9194" data-name="Path 9194" d="M387.327,729.057l-.087.106v5.412l.087.254,7.057-9.938Z" transform="translate(-380.274 -711.85)" fill="#242d3b"/>
          <path id="Path_9195" data-name="Path 9195" d="M7.053,734.828v-5.772L0,724.89Z" transform="translate(0 -711.85)" fill="#728dba"/>
          <path id="Path_9196" data-name="Path 9196" d="M392.07,479.7l7.053-4.169-7.053-3.206Z" transform="translate(-385.017 -463.834)" fill="#1f2733"/>
          <path id="Path_9197" data-name="Path 9197" d="M0,475.536,7.053,479.7V472.33Z" transform="translate(0 -463.834)" fill="#242d3b"/>
        </g>
      </g>
    </g>
  </g>
</svg>
