<svg xmlns="http://www.w3.org/2000/svg" width="135.806" height="35.822" viewBox="0 0 135.806 35.822">
  <g id="Group_180" data-name="Group 180" transform="translate(-145.159 -3020.977)">
    <g id="Group_176" data-name="Group 176" transform="translate(145.159 3020.977)">
      <g id="Group_174" data-name="Group 174" transform="translate(0 0)">
        <g id="Group_168" data-name="Group 168" transform="translate(0 0)">
          <g id="Group_167" data-name="Group 167">
            <g id="Group_166" data-name="Group 166">
              <path id="Path_8911" data-name="Path 8911" d="M305.327,534.727H312.3v35.366h-5.3l-15.157-21.623v21.623h-6.972V534.727h5.3l15.162,21.544Z" transform="translate(-284.866 -534.727)" fill="#fff"/>
              <path id="Path_8912" data-name="Path 8912" d="M456.25,563.424h14.9v6.669H449.278V534.727H470.9V541.4H456.25v7.528h13.388v6.569H456.25Z" transform="translate(-415.277 -534.727)" fill="#fff"/>
              <path id="Path_8913" data-name="Path 8913" d="M613.366,534.727v35.366h-6.922V547.155l-9.973,16.407-.813.028-9.928-16.349v22.85h-6.972V534.727h7.174l10.141,16.7,10.089-16.7Z" transform="translate(-517.98 -534.727)" fill="#fff"/>
            </g>
          </g>
        </g>
        <g id="Group_179" data-name="Group 179" transform="translate(100.02 0)">
          <g id="Group_172" data-name="Group 172" transform="translate(0)">
            <g id="Group_170" data-name="Group 170" transform="translate(10.093 9.604)">
              <g id="Group_169" data-name="Group 169" transform="translate(0 2.735)">
                <path id="Path_8915" data-name="Path 8915" d="M553.13,287.665a4.626,4.626,0,0,1,1.209-3.125l-3.839-2.067a.112.112,0,0,0-.135.175,6.508,6.508,0,0,1-.495,9.44l2.87,1.756,3.823,2.1a.187.187,0,0,0,.281-.162v-3.389a.187.187,0,0,0-.108-.168l-.132-.067A4.645,4.645,0,0,1,553.13,287.665Z" transform="translate(-549.871 -282.459)" fill="#1dbcc4"/>
                <path id="Path_8916" data-name="Path 8916" d="M629.7,287.134a6.453,6.453,0,0,1,1.793-4.485.112.112,0,0,0-.135-.175l-3.84,2.066a4.644,4.644,0,0,1-2.265,7.619l-.133.067a.187.187,0,0,0-.108.168v3.389a.186.186,0,0,0,.281.162l3.823-2.1,2.87-1.756A6.451,6.451,0,0,1,629.7,287.134Z" transform="translate(-616.187 -282.46)" fill="#1dbcc4"/>
              </g>
              <path id="Path_8917" data-name="Path 8917" d="M601.771,267.113h.587L601.3,280.05h3.717l-1.056-12.937h.587a.1.1,0,0,0,.087-.085c.031-.124-1.4-7.791-1.4-7.791a.115.115,0,0,0-.023-.031,0,0,0,0,1,0,0l0,0a.073.073,0,0,0-.036-.015h-.008a.058.058,0,0,0-.037.009h0a.08.08,0,0,0-.019.01.1.1,0,0,0-.02.023s-1.435,7.674-1.4,7.8A.1.1,0,0,0,601.771,267.113Z" transform="translate(-595.258 -259.187)" fill="#00f7f6"/>
            </g>
            <g id="Group_171" data-name="Group 171">
              <path id="Path_8918" data-name="Path 8918" d="M494.557,182.644a17.2,17.2,0,0,0-11.444-5.15c-.414-.026-.83-.042-1.255-.042-.336,0-.668.009-1,.026a17.724,17.724,0,0,0-16.871,17.892,17.965,17.965,0,0,0,1.63,7.7,16.733,16.733,0,0,0,1.042,1.888,47.278,47.278,0,0,1,13.015,3.851c.276.12.549.223.822.326a16.878,16.878,0,0,0,2.986.828,17.506,17.506,0,0,0,10.927-1.733c.048-.047.1-.091.145-.138a18.468,18.468,0,0,0,2.367-2.874,18.256,18.256,0,0,0-2.367-22.575Zm-4.773,20.821a10.561,10.561,0,0,1-5.308,2.895q-.5.109-1.03.173a12.871,12.871,0,0,1-1.587.107,13.048,13.048,0,0,1-1.33-.073,10.622,10.622,0,0,1-6.595-3.1c-.117-.116-.218-.24-.329-.36h0a11.885,11.885,0,0,1,.328-15.859,10.613,10.613,0,0,1,6.852-3.153c.351-.029.708-.047,1.073-.047a12.983,12.983,0,0,1,1.33.073,10.59,10.59,0,0,1,6.594,3.126,11.878,11.878,0,0,1,0,16.219Z" transform="translate(-463.989 -177.451)" fill="#00f7f6"/>
              <path id="Path_8919" data-name="Path 8919" d="M516.3,434.553a15.927,15.927,0,0,1-3.016-.719,13.846,13.846,0,0,1-1.335-.54c-5.473-2.567-9.079-2.818-10.79-2.726.107.121.214.241.324.36,4.491.8,5.89,2.865,10.662,4.878a11.979,11.979,0,0,0,3.031.828,17.393,17.393,0,0,0,8.578-2.374A22.843,22.843,0,0,1,516.3,434.553Z" transform="translate(-496.794 -400.81)" fill="#fff"/>
              <path id="Ellipse_75" data-name="Ellipse 75" d="M11.757.776A11.027,11.027,0,0,0,.99,9.694,11.157,11.157,0,0,0,7.479,22.15a10.945,10.945,0,0,0,14.4-5.92A11.177,11.177,0,0,0,16.034,1.65,10.807,10.807,0,0,0,11.757.776m0-.776A11.829,11.829,0,0,1,23.513,11.9,11.829,11.829,0,0,1,11.757,23.8,11.829,11.829,0,0,1,0,11.9,11.829,11.829,0,0,1,11.757,0Z" transform="translate(6.003 5.956)" fill="#fff"/>
            </g>
          </g>
        </g>
      </g>
    </g>
  </g>
</svg>
