<svg id="usd-coin-usdc-logo" xmlns="http://www.w3.org/2000/svg" width="30" height="30" viewBox="0 0 30 30">
  <path id="Path_20089" data-name="Path 20089" d="M15,30A15,15,0,1,0,0,15,14.964,14.964,0,0,0,15,30Z" fill="#728dba"/>
  <path id="Path_20090" data-name="Path 20090" d="M725.045,518.08c0-2.187-1.312-2.937-3.938-3.25-1.875-.25-2.25-.75-2.25-1.625s.625-1.437,1.875-1.437a1.85,1.85,0,0,1,2.063,1.313.47.47,0,0,0,.438.312h1a.427.427,0,0,0,.438-.437v-.063a3.122,3.122,0,0,0-2.812-2.562v-1.5c0-.25-.187-.437-.5-.5h-.937c-.25,0-.437.188-.5.5v1.438a3.187,3.187,0,0,0-3.062,3.063c0,2.063,1.25,2.875,3.875,3.188,1.75.312,2.313.687,2.313,1.688s-.875,1.688-2.062,1.688c-1.625,0-2.188-.688-2.375-1.625a.457.457,0,0,0-.437-.375h-1.063a.427.427,0,0,0-.437.438v.063a3.491,3.491,0,0,0,3.313,3v1.5c0,.25.188.437.5.5h.938c.25,0,.438-.187.5-.5v-1.5A3.424,3.424,0,0,0,725.045,518.08Z" transform="translate(-705.92 -500.705)" fill="#1c232e"/>
  <path id="Path_20091" data-name="Path 20091" d="M256.059,311.232a9.353,9.353,0,0,1,0-17.562.627.627,0,0,0,.375-.625v-.875a.475.475,0,0,0-.375-.5.377.377,0,0,0-.25.062,11.247,11.247,0,0,0,0,21.438.38.38,0,0,0,.562-.25c.063-.062.063-.125.063-.25v-.875A.833.833,0,0,0,256.059,311.232Zm6.625-19.5a.38.38,0,0,0-.562.25c-.063.063-.063.125-.063.25v.875a.829.829,0,0,0,.375.625,9.353,9.353,0,0,1,0,17.562.627.627,0,0,0-.375.625v.875a.475.475,0,0,0,.375.5.376.376,0,0,0,.25-.062,11.3,11.3,0,0,0,0-21.5Z" transform="translate(-244.246 -287.295)" fill="#1c232e"/>
</svg>
