<svg xmlns="http://www.w3.org/2000/svg" width="30" height="30" viewBox="0 0 30 30">
  <g id="Group_2691" data-name="Group 2691" transform="translate(-476 -1121)">
    <circle id="Ellipse_79" data-name="Ellipse 79" cx="15" cy="15" r="15" transform="translate(476 1121)" fill="#4b5d7a"/>
    <path id="Path_9206" data-name="Path 9206" d="M73.136,47.657h0c-.085.006-.526.033-1.508.033-.781,0-1.336-.023-1.531-.033h0c-3.019-.133-5.273-.658-5.273-1.288s2.254-1.154,5.273-1.289v2.053c.2.014.763.048,1.544.048.938,0,1.407-.039,1.492-.047V45.082c3.013.134,5.262.66,5.262,1.288s-2.248,1.153-5.262,1.287h0Zm0-2.788V43.032h4.2v-2.8H65.893v2.8h4.2v1.837c-3.417.157-5.987.834-5.987,1.645S66.68,48,70.1,48.159v5.888h3.038v-5.89c3.409-.157,5.975-.833,5.975-1.644s-2.563-1.487-5.975-1.644h0Zm0,0Z" transform="translate(419.39 1088.862)" fill="#1c232e" fill-rule="evenodd"/>
  </g>
</svg>
