<svg xmlns="http://www.w3.org/2000/svg" width="30" height="30" viewBox="0 0 30 30">
  <g id="Bitcoin" transform="translate(0.002 -0.002)">
    <path id="Path_9190" data-name="Path 9190" d="M29.549,18.631A15,15,0,1,1,18.625.451,15,15,0,0,1,29.549,18.631Z" transform="translate(0 0)" fill="#728dba"/>
    <path id="Path_9191" data-name="Path 9191" d="M29.883,18.789c.3-2-1.221-3.069-3.3-3.785l.674-2.7-1.646-.41-.656,2.632c-.433-.108-.877-.21-1.319-.31l.661-2.65-1.645-.41-.675,2.7c-.358-.082-.71-.162-1.051-.247l0-.008-2.27-.567-.438,1.758s1.221.28,1.2.3a.876.876,0,0,1,.767.957l-.768,3.08a1.363,1.363,0,0,1,.171.055l-.174-.043-1.076,4.315a.6.6,0,0,1-.754.391c.016.024-1.2-.3-1.2-.3l-.817,1.884,2.142.534c.4.1.789.2,1.173.3L18.2,29l1.644.41.675-2.706c.449.122.885.234,1.312.34l-.672,2.693,1.646.41.681-2.73c2.807.531,4.917.317,5.806-2.221a2.887,2.887,0,0,0-1.512-3.991A2.625,2.625,0,0,0,29.883,18.789Zm-3.761,5.273c-.509,2.044-3.95.939-5.066.662l.9-3.623C23.076,21.38,26.654,21.931,26.123,24.062Zm.509-5.3c-.464,1.859-3.328.915-4.258.683l.819-3.286C24.123,16.388,27.115,16.821,26.632,18.76Z" transform="translate(-8.272 -5.924)" fill="#1c232e"/>
  </g>
</svg>
